<svg width="19" height="19" viewBox="0 0 19 19" fill="none" xmlns="http://www.w3.org/2000/svg">
<path fill-rule="evenodd" clip-rule="evenodd" d="M0 9.5C0 4.25695 4.256 0 9.5 0C14.7535 0 19 4.25695 19 9.5C19 14.7449 14.7535 19 9.5 19C4.256 19 0 14.7449 0 9.5ZM8.66399 5.8995C8.66399 5.44445 9.04399 5.0635 9.49999 5.0635C9.95599 5.0635 10.3265 5.44445 10.3265 5.8995V10.0985C10.3265 10.5554 9.95599 10.925 9.49999 10.925C9.04399 10.925 8.66399 10.5554 8.66399 10.0985V5.8995ZM9.50952 13.9469C9.04402 13.9469 8.67352 13.5669 8.67352 13.1109C8.67352 12.6549 9.04402 12.2844 9.50002 12.2844C9.96552 12.2844 10.336 12.6549 10.336 13.1109C10.336 13.5669 9.96552 13.9469 9.50952 13.9469Z" fill="#FF3535"/>
</svg>
