<svg width="24" height="26" viewBox="0 0 24 26" fill="none" xmlns="http://www.w3.org/2000/svg">
<mask id="path-1-inside-1" fill="white">
<path fill-rule="evenodd" clip-rule="evenodd" d="M10.9903 1.49961C10.976 1.09533 11.4184 0.818903 11.7687 1.02117L17.5828 4.37792L17.5828 4.37797L22.0938 6.98245C22.4442 7.18472 22.426 7.70601 22.0687 7.89579C20.7432 8.59993 18.2582 10.0654 17.3942 11.562C16.6802 12.7987 16.8171 13.7424 17.0956 15.6621C17.125 15.8649 17.156 16.0786 17.1878 16.3046C17.4487 18.1631 17.0198 19.6234 16.7416 20.3276C16.6391 20.5871 16.3352 20.6743 16.0937 20.5349L10.0247 17.0309L7.91946 20.6773L6.46938 21.0555L9.10091 16.4976L8.91136 16.3882L8.91139 16.3881L3.03208 12.9937C2.79048 12.8542 2.71414 12.5474 2.88758 12.3289C3.35837 11.7358 4.40851 10.6343 6.1485 9.93107C6.36015 9.84553 6.5607 9.76553 6.75103 9.68962C8.5528 8.97097 9.43853 8.61769 10.1526 7.38093C11.0166 5.8844 11.0433 2.99963 10.9903 1.49961Z"/>
</mask>
<path d="M10.9903 1.49961L9.99093 1.53489L9.99093 1.53489L10.9903 1.49961ZM17.5828 4.37792L18.4488 4.87792L18.9488 4.0119L18.0828 3.5119L17.5828 4.37792ZM17.5828 4.37797L16.7167 3.87797L16.2167 4.744L17.0828 5.244L17.5828 4.37797ZM22.0687 7.89579L21.5996 7.01266L21.5996 7.01266L22.0687 7.89579ZM17.0956 15.6621L16.106 15.8057L16.106 15.8057L17.0956 15.6621ZM17.1878 16.3046L16.1975 16.4437L17.1878 16.3046ZM16.7416 20.3276L17.6716 20.6951L17.6716 20.6951L16.7416 20.3276ZM10.0247 17.0309L10.5247 16.1649L9.65865 15.6649L9.15865 16.5309L10.0247 17.0309ZM7.91946 20.6773L8.17187 21.6449L8.57643 21.5394L8.78548 21.1773L7.91946 20.6773ZM6.46938 21.0555L5.60335 20.5555L4.40747 22.6269L6.72179 22.0232L6.46938 21.0555ZM9.10091 16.4976L9.96693 16.9976L10.4669 16.1316L9.60091 15.6316L9.10091 16.4976ZM8.91136 16.3882L8.04534 15.8882L7.54534 16.7542L8.41136 17.2542L8.91136 16.3882ZM8.91139 16.3881L9.77742 16.8881L10.2774 16.0221L9.41139 15.5221L8.91139 16.3881ZM2.88758 12.3289L2.10434 11.7072L2.88758 12.3289ZM6.1485 9.93107L5.77379 9.00393L6.1485 9.93107ZM6.75103 9.68962L6.38056 8.76078L6.38056 8.76078L6.75103 9.68962ZM12.2687 0.155144C11.2082 -0.457131 9.95016 0.380205 9.99093 1.53489L11.9897 1.46433C11.9964 1.65585 11.8907 1.80803 11.7687 1.88346C11.6443 1.96037 11.4475 1.99039 11.2687 1.88719L12.2687 0.155144ZM18.0828 3.5119L12.2687 0.155144L11.2687 1.88719L17.0828 5.24395L18.0828 3.5119ZM18.4488 4.87797L18.4488 4.87792L16.7168 3.87792L16.7167 3.87797L18.4488 4.87797ZM22.5938 6.11642L18.0828 3.51194L17.0828 5.244L21.5938 7.84847L22.5938 6.11642ZM22.5378 8.77892C23.5582 8.23688 23.6543 6.7287 22.5938 6.11642L21.5938 7.84847C21.4151 7.74528 21.3427 7.55977 21.3471 7.41359C21.3514 7.27023 21.4303 7.10257 21.5996 7.01266L22.5378 8.77892ZM18.2602 12.062C18.5805 11.5073 19.2695 10.8691 20.141 10.2445C20.9856 9.6391 21.8954 9.12021 22.5378 8.77892L21.5996 7.01266C20.9165 7.37551 19.921 7.94144 18.9758 8.61895C18.0574 9.27724 17.072 10.1201 16.5282 11.062L18.2602 12.062ZM18.0852 15.5185C17.7999 13.5518 17.7441 12.9559 18.2602 12.062L16.5282 11.062C15.6162 12.6415 15.8343 13.933 16.106 15.8057L18.0852 15.5185ZM18.178 16.1656C18.1459 15.9369 18.1146 15.7211 18.0852 15.5185L16.106 15.8057C16.1354 16.0087 16.1661 16.2202 16.1975 16.4437L18.178 16.1656ZM17.6716 20.6951C17.9917 19.885 18.4701 18.2456 18.178 16.1656L16.1975 16.4437C16.4273 18.0807 16.048 19.3617 15.8116 19.9602L17.6716 20.6951ZM15.5937 21.4009C16.3007 21.8091 17.3186 21.5887 17.6716 20.6951L15.8116 19.9602C15.8765 19.7959 16.0161 19.6745 16.1742 19.6255C16.3253 19.5788 16.477 19.6015 16.5937 19.6688L15.5937 21.4009ZM9.52467 17.897L15.5937 21.4009L16.5937 19.6688L10.5247 16.1649L9.52467 17.897ZM9.15865 16.5309L7.05343 20.1773L8.78548 21.1773L10.8907 17.5309L9.15865 16.5309ZM7.66704 19.7097L6.21696 20.0879L6.72179 22.0232L8.17187 21.6449L7.66704 19.7097ZM7.3354 21.5555L9.96693 16.9976L8.23488 15.9976L5.60335 20.5555L7.3354 21.5555ZM8.41136 17.2542L8.60091 17.3636L9.60091 15.6316L9.41136 15.5221L8.41136 17.2542ZM8.04537 15.8881L8.04534 15.8882L9.77739 16.8882L9.77742 16.8881L8.04537 15.8881ZM2.53208 13.8597L8.41139 17.2541L9.41139 15.5221L3.53208 12.1277L2.53208 13.8597ZM2.10434 11.7072C1.50697 12.4598 1.82507 13.4515 2.53208 13.8597L3.53208 12.1277C3.64877 12.195 3.74424 12.315 3.77931 12.4693C3.816 12.6307 3.78067 12.8123 3.67082 12.9507L2.10434 11.7072ZM5.77379 9.00393C3.82639 9.79099 2.64586 11.025 2.10434 11.7072L3.67082 12.9507C4.07089 12.4466 4.99062 11.4776 6.52321 10.8582L5.77379 9.00393ZM6.38056 8.76078C6.19046 8.8366 5.98787 8.9174 5.77379 9.00393L6.52321 10.8582C6.73244 10.7736 6.93095 10.6945 7.12151 10.6185L6.38056 8.76078ZM9.28654 6.88093C8.7704 7.77492 8.22645 8.02453 6.38056 8.76078L7.12151 10.6185C8.87916 9.91741 10.1067 9.46046 11.0186 7.88093L9.28654 6.88093ZM9.99093 1.53489C10.0166 2.26194 10.0221 3.30926 9.92013 4.34344C9.81492 5.41044 9.60679 6.32624 9.28654 6.88093L11.0186 7.88093C11.5624 6.93909 11.7996 5.66423 11.9105 4.53971C12.0246 3.38237 12.017 2.2373 11.9897 1.46433L9.99093 1.53489Z" fill="#959595" mask="url(#path-1-inside-1)"/>
</svg>
